<?xml version="1.0" encoding="utf-8"?>
<!-- Generator: Adobe Illustrator 19.1.0, SVG Export Plug-In . SVG Version: 6.00 Build 0)  -->
<!DOCTYPE svg PUBLIC "-//W3C//DTD SVG 1.1//EN" "http://www.w3.org/Graphics/SVG/1.1/DTD/svg11.dtd">
<svg version="1.1" xmlns="http://www.w3.org/2000/svg" xmlns:xlink="http://www.w3.org/1999/xlink" x="0px" y="0px" width="56px"
	 height="55px" viewBox="0 0 56 55" style="enable-background:new 0 0 56 55;" xml:space="preserve">
<style type="text/css">
	.st0{opacity:0.3;}
	.st1{fill:#437EB8;}
	.st2{fill:none;stroke:#437EB8;stroke-width:3.7213;stroke-miterlimit:10;}
	.st3{opacity:0.52;}
	.st4{clip-path:url(#SVGID_4_);}
	.st5{clip-path:url(#SVGID_6_);}
	.st6{clip-path:url(#SVGID_8_);}
	.st7{clip-path:url(#SVGID_10_);}
</style>
<g id="Layer_1">
</g>
<g id="img">
</g>
<g id="Social_Media">
	<path class="st1" d="M49.9,0.9H7.1C4.3,0.9,2,3.2,2,6v42.9c0,2.8,2.3,5.1,5.1,5.1h23.1V34.4h-6.5v-8.1h6.5v-8.1c0,0,1-8.1,8.3-8.1
		s7.3,0,7.3,0v7.5c0,0-5.5-0.1-6,0.2c-0.7,0.4-1.4,1.2-1.3,3.1v5.4h7.3l-0.7,7.8h-7v19.7h11.9c2.8,0,5.1-2.3,5.1-5.1V6
		C55,3.2,52.7,0.9,49.9,0.9z"/>
</g>
<g id="texts">
</g>
<g id="shape">
</g>
<g id="cats">
</g>
</svg>
