<?xml version="1.0" encoding="utf-8"?>
<!-- Generator: Adobe Illustrator 19.1.0, SVG Export Plug-In . SVG Version: 6.00 Build 0)  -->
<!DOCTYPE svg PUBLIC "-//W3C//DTD SVG 1.1//EN" "http://www.w3.org/Graphics/SVG/1.1/DTD/svg11.dtd">
<svg version="1.1" xmlns="http://www.w3.org/2000/svg" xmlns:xlink="http://www.w3.org/1999/xlink" x="0px" y="0px" width="192.3px"
	 height="191px" viewBox="0 0 192.3 191" style="enable-background:new 0 0 192.3 191;" xml:space="preserve">
<style type="text/css">
	.st0{fill:#437DB7;}
	.st1{fill:none;stroke:#437DB7;stroke-width:6;stroke-miterlimit:10;}
</style>
<g id="Layer_1">
	<g>
		<path class="st0" d="M154.9,189.6H36.1c-18.7,0-34-15.3-34-34V36.8c0-18.7,15.2-34,34-34h118.7c18.7,0,34,15.3,34,34v118.7
			C188.9,174.3,173.6,189.6,154.9,189.6z M36.1,8.4C20.5,8.4,7.7,21.2,7.7,36.8v118.7c0,15.7,12.7,28.4,28.4,28.4h118.7
			c15.7,0,28.4-12.7,28.4-28.4V36.8c0-15.7-12.7-28.4-28.4-28.4H36.1z"/>
	</g>
	<circle class="st0" cx="61.3" cy="96.2" r="25.8"/>
	<circle class="st1" cx="129.7" cy="96.2" r="23"/>
</g>
<g id="shape">
	<g>
	</g>
	<g>
	</g>
</g>
</svg>
