<?xml version="1.0" encoding="utf-8"?>
<!-- Generator: Adobe Illustrator 19.1.0, SVG Export Plug-In . SVG Version: 6.00 Build 0)  -->
<!DOCTYPE svg PUBLIC "-//W3C//DTD SVG 1.1//EN" "http://www.w3.org/Graphics/SVG/1.1/DTD/svg11.dtd">
<svg version="1.1" id="Layer_1" xmlns="http://www.w3.org/2000/svg" xmlns:xlink="http://www.w3.org/1999/xlink" x="0px" y="0px"
	 width="59px" height="59px" viewBox="-348 259 59 59" style="enable-background:new -348 259 59 59;" xml:space="preserve">
<style type="text/css">
	.st0{fill:#437DB7;}
	.st1{fill:none;stroke:#437DB7;stroke-width:2;stroke-miterlimit:10;}
</style>
<g>
	<g id="Layer_1_3_">
		<g>
			<path class="st0" d="M-299.7,318h-37.5c-5.9,0-10.7-4.8-10.7-10.7v-37.5c0-5.9,4.8-10.7,10.7-10.7h37.5c5.9,0,10.7,4.8,10.7,10.7
				v37.5C-289,313.2-293.8,318-299.7,318z M-337.2,260.8c-4.9,0-9,4-9,9v37.5c0,5,4,9,9,9h37.5c5,0,9-4,9-9v-37.5c0-5-4-9-9-9
				H-337.2z"/>
		</g>
		<circle class="st0" cx="-329.3" cy="288.5" r="8.1"/>
		<circle class="st1" cx="-307.7" cy="288.5" r="7.3"/>
	</g>
	<g id="shape_2_">
		<g>
		</g>
		<g>
		</g>
	</g>
</g>
</svg>
