<?xml version="1.0" encoding="utf-8"?>
<!-- Generator: Adobe Illustrator 19.1.0, SVG Export Plug-In . SVG Version: 6.00 Build 0)  -->
<!DOCTYPE svg PUBLIC "-//W3C//DTD SVG 1.1//EN" "http://www.w3.org/Graphics/SVG/1.1/DTD/svg11.dtd">
<svg version="1.1" xmlns="http://www.w3.org/2000/svg" xmlns:xlink="http://www.w3.org/1999/xlink" x="0px" y="0px" width="58.6px"
	 height="59px" viewBox="0 0 58.6 59" style="enable-background:new 0 0 58.6 59;" xml:space="preserve">
<style type="text/css">
	.st0{opacity:0.3;}
	.st1{fill:#437EB8;}
	.st2{fill:none;stroke:#437EB8;stroke-width:3.7213;stroke-miterlimit:10;}
	.st3{opacity:0.52;}
	.st4{clip-path:url(#SVGID_4_);}
	.st5{clip-path:url(#SVGID_6_);}
	.st6{clip-path:url(#SVGID_8_);}
	.st7{clip-path:url(#SVGID_10_);}
</style>
<g id="Layer_1">
</g>
<g id="img">
</g>
<g id="Social_Media">
	<g>
		<path class="st2" d="M47.6,56.8H11.1c-4.6,0-8.3-3.7-8.3-8.3V12c0-4.6,3.7-8.3,8.3-8.3h36.5c4.6,0,8.3,3.7,8.3,8.3v36.5
			C55.9,53.1,52.2,56.8,47.6,56.8z"/>
		<path class="st1" d="M46.7,19.9h-3.8c-1.8,0-3.3-1.5-3.3-3.3v-3.3c0-1.8,1.5-3.3,3.3-3.3h3.8c1.8,0,3.3,1.5,3.3,3.3v3.3
			C50,18.4,48.5,19.9,46.7,19.9z"/>
		<circle class="st1" cx="29.4" cy="30.3" r="10.3"/>
		<g>
			<path class="st1" d="M45.3,26c0.3,1.3,0.5,2.7,0.5,4.1c0,9.1-7.4,16.4-16.4,16.4S13,39.2,13,30.1c0-1.4,0.2-2.7,0.5-4H8.8v22
				c0,1.4,1.2,2.6,2.6,2.6h36c1.4,0,2.6-1.2,2.6-2.6v-22C50,26.1,46.2,25.9,45.3,26z"/>
		</g>
	</g>
</g>
<g id="texts">
</g>
<g id="shape">
</g>
<g id="cats">
</g>
</svg>
