<?xml version="1.0" encoding="utf-8"?>
<!-- Generator: Adobe Illustrator 19.1.0, SVG Export Plug-In . SVG Version: 6.00 Build 0)  -->
<!DOCTYPE svg PUBLIC "-//W3C//DTD SVG 1.1//EN" "http://www.w3.org/Graphics/SVG/1.1/DTD/svg11.dtd">
<svg version="1.1" xmlns="http://www.w3.org/2000/svg" xmlns:xlink="http://www.w3.org/1999/xlink" x="0px" y="0px" width="59px"
	 height="59px" viewBox="0 0 59 59" style="enable-background:new 0 0 59 59;" xml:space="preserve">
<style type="text/css">
	.st0{opacity:0.3;}
	.st1{fill:#437EB8;}
	.st2{fill:none;stroke:#437EB8;stroke-width:3.7213;stroke-miterlimit:10;}
	.st3{opacity:0.52;}
	.st4{clip-path:url(#SVGID_4_);}
	.st5{clip-path:url(#SVGID_6_);}
	.st6{clip-path:url(#SVGID_8_);}
	.st7{clip-path:url(#SVGID_10_);}
</style>
<g id="Layer_1">
</g>
<g id="img">
</g>
<g id="Social_Media">
	<path class="st1" d="M29.7,1.7C14.1,1.7,1.4,14.3,1.4,29.9c0,12.3,7.9,22.8,18.9,26.7l-1.9-0.9c-1.8-2.4,4-21.4,4-21.4
		c-3.7-9.8,3.4-12.5,3.4-12.5C33.7,20,30,31.9,30,31.9c-4.3,7.9,1.8,9.8,1.8,9.8C43.1,41.1,41,25.5,41,25.5
		c-1.5-14.4-18.6-7.9-18.6-7.9c-11,7.9-4,18.3-4,18.3l-1.2,4.3c-9.8-5.8-4.9-18.3-4.9-18.3c5.2-10.4,15.9-10.4,15.9-10.4
		c12.2-2.4,17.7,7.6,17.7,7.6c5.2,9.2-0.3,19.8-0.3,19.8c-8.9,13.7-19.2,5.2-19.2,5.2c-0.5,8.4-3.7,12.2-4.4,13
		c2.5,0.7,5.1,1.1,7.7,1.1c15.6,0,28.3-12.7,28.3-28.3S45.3,1.7,29.7,1.7z"/>
</g>
<g id="texts">
</g>
<g id="shape">
</g>
<g id="cats">
</g>
</svg>
