<?xml version="1.0" encoding="utf-8"?>
<!-- Generator: Adobe Illustrator 19.1.0, SVG Export Plug-In . SVG Version: 6.00 Build 0)  -->
<!DOCTYPE svg PUBLIC "-//W3C//DTD SVG 1.1//EN" "http://www.w3.org/Graphics/SVG/1.1/DTD/svg11.dtd">
<svg version="1.1" xmlns="http://www.w3.org/2000/svg" xmlns:xlink="http://www.w3.org/1999/xlink" x="0px" y="0px" width="62.5px"
	 height="52px" viewBox="0 0 62.5 52" style="enable-background:new 0 0 62.5 52;" xml:space="preserve">
<style type="text/css">
	.st0{opacity:0.3;}
	.st1{fill:#437EB8;}
	.st2{fill:none;stroke:#437EB8;stroke-width:3.7213;stroke-miterlimit:10;}
	.st3{opacity:0.52;}
	.st4{clip-path:url(#SVGID_4_);}
	.st5{clip-path:url(#SVGID_6_);}
	.st6{clip-path:url(#SVGID_8_);}
	.st7{clip-path:url(#SVGID_10_);}
</style>
<g id="Layer_1">
</g>
<g id="img">
</g>
<g id="Social_Media">
	<path class="st1" d="M51.7,5.2c0,0-0.3-0.3-0.4-0.4c-2.1-2.2-5.1-3.5-8.4-3.5c-6.5,0-11.8,5.3-11.8,11.8c0,0.9,0.1,1.8,0.3,2.6l0,0
		c0,0-10.2,3.8-26.6-12.4c0,0-4.5,11,4.1,16.8c0,0-2.6,0.6-5.3-1.5c0,0-0.9,9.9,9.7,12.3c0,0-3,1.1-5.6,0.7c0,0,2.6,7.8,11.2,8.2
		c0,0-5.8,6.9-18,5.4c0,0,21.8,14.5,41.9-3c0,0,14.3-12.2,12-28c0,0,6.9-6.8,6.9-6.8L53.3,10l5.9-7.2L51.7,5.2z"/>
</g>
<g id="texts">
</g>
<g id="shape">
</g>
<g id="cats">
</g>
</svg>
